<svg width="100%" height="100%" viewBox="0 0 2700 2287" xmlns="http://www.w3.org/2000/svg" xmlns:xlink="http://www.w3.org/1999/xlink" xml:space="preserve"
     style="fill-rule:evenodd;clip-rule:evenodd;stroke-linejoin:round;stroke-miterlimit:2;">
    <path id="_6311096" d="M796.878,974.513c-102.205,221.351 -443.048,243.86 -560.059,91.229c127.525,-186.7 431.091,-237.803 560.059,-91.229Z" style="fill:#606c38;"/>
    <path id="_6308216" d="M1010.26,1481.04c-173.47,157.656 -494.15,27.466 -546.274,-164.243c184.208,-114.732 480.855,-27.255 546.274,164.243Z" style="fill:#606c38;"/>
    <path id="_6307424" d="M546.338,606.245c-173.616,157.615 -494.217,27.492 -546.338,-164.152c184.207,-114.758 480.868,-27.321 546.338,164.152Z" style="fill:#606c38;"/>
    <path id="_6311168" d="M655.209,617.22c-157.205,-177.406 -68.64,-542.693 99.182,-617.22c119.545,193.036 67.249,528.1 -99.182,617.22Z" style="fill:#606c38;"/>
    <path id="_6309440" d="M1188.78,309.346c70.562,226.68 -174.809,475.458 -366.665,447.156c-27.904,-219.389 169.586,-462.904 366.665,-447.156Z" style="fill:#606c38;"/>
    <path id="_6309512" d="M1337.91,823.657c-179.01,-151.027 -104.525,-496.748 71.557,-579.903c139.415,168.671 102.232,483.239 -71.557,579.903Z" style="fill:#606c38;"/>
    <path id="_6309560" d="M2047.66,1132.24c25.041,-189.192 297.11,-290.097 432.668,-205.921c-54.747,169.798 -288.826,282.634 -432.668,205.921Z" style="fill:#606c38;"/>
    <path id="_6309632" d="M2243.97,710.662c-18.453,-237.125 275.503,-422.142 456.025,-349.749c-21.395,220.145 -267.68,411.125 -456.025,349.749Z" style="fill:#606c38;"/>
    <path id="_6309680" d="M1954.65,951.367c-176.214,-154.606 -95.219,-498.669 82.321,-578.326c136.286,171.296 93.217,485.136 -82.321,578.326Z" style="fill:#606c38;"/>
    <path id="_6310568" d="M1582.98,1240.51c-176.214,-154.54 -95.298,-498.669 82.347,-578.391c136.233,171.362 93.231,485.307 -82.347,578.391Z" style="fill:#606c38;"/>
    <path id="_6309872" d="M1730.67,1539.09c25.81,-236.437 348.557,-360.659 512.456,-254.425c-61.681,211.992 -338.906,351.366 -512.456,254.425Z" style="fill:#606c38;"/>
    <path id="_6310640"
          d="M557.525,617.989c350.028,153.905 612.594,688.113 773.271,1078.65c243.41,-86.775 76.21,-593.757 -202.832,-865.334c211.807,86.986 381.287,356.735 432.137,583.058c218.223,-295.468 482.922,-496.046 754.077,-661.349c-237.272,191.432 -466.02,452.486 -635.499,713.5c-67.792,104.418 -127.113,252.357 -93.231,382.905c42.434,156.634 254.255,191.392 279.639,348c-84.666,88.697 -262.591,69.582 -432.07,87.014c-144.041,8.735 -381.325,-17.432 -516.91,-52.256c180.694,-212.443 152.259,-780.07 50.161,-1017.02c-96.438,-223.525 -244.098,-440.025 -408.74,-597.163l-0.003,-0.005Z"
          style="fill:#755941;"/>
</svg>
